# xmcd
#
# Track frame offsets:
#	182
#	14917
#	28257
#	43162
#	57347
#	70830
#	85672
#	102200
#	112162
#	130007
#	145885
#	164332
#	181582
#	195270
#	211217
#	232135
#	246747
#	263480
#	276545
#	292412
#
# Disc length: 4185 seconds
#
# Revision: 1
# Processed by: cddbd v1.5PL3 Copyright (c) Steve Scherf et al.
# Submitted via: audiograbber 1.82.02
#
DISCID=39105714
DTITLE=Fesaci - Hvezda Countryon (1985-1990)
DYEAR=1990
DGENRE=Country
TTITLE0=Country bal
TTITLE1=Komedie plna omylu
TTITLE2=Nevzpominej musis jit
TTITLE3=Duhove znameni
TTITLE4=Dzubox
TTITLE5=Sedim si a zpivam
TTITLE6=Always On My Mind
TTITLE7=Nashville
TTITLE8=Bila mista
TTITLE9=Country
TTITLE10=Suzy
TTITLE11=Lady
TTITLE12=Muj stin splyva s tvym
TTITLE13=Amanda
TTITLE14=Cesty domu
TTITLE15=Mam te rad, kdyz spis
TTITLE16=Pul a pul
TTITLE17=Balim a odchazim
TTITLE18=Hvezda Countryon
TTITLE19=Komedianti nestarnou
EXTD=
EXTT0=
EXTT1=
EXTT2=
EXTT3=
EXTT4=
EXTT5=
EXTT6=
EXTT7=
EXTT8=
EXTT9=
EXTT10=
EXTT11=
EXTT12=
EXTT13=
EXTT14=
EXTT15=
EXTT16=
EXTT17=
EXTT18=
EXTT19=
PLAYORDER=
